<svg width="512" height="512" viewBox="0 0 512 512" fill="none" xmlns="http://www.w3.org/2000/svg">
<rect width="512" height="512" fill="#2D0000"/>
<g clip-path="url(#clip0_149_10)">
<path d="M117 294.715L266.333 208.018L341 251.366C382.237 275.307 382.237 314.122 341 338.063C299.763 362.004 232.904 362.004 191.667 338.063L117 294.715Z" fill="url(#paint0_linear_149_10)"/>
<path d="M117 242.697L266.333 156L341 199.348C382.237 223.289 382.237 262.104 341 286.045C299.763 309.986 232.904 309.986 191.667 286.045L117 242.697Z" fill="url(#paint1_linear_149_10)"/>
<path d="M117 268.706L266.333 182.009L341 225.357C382.237 249.298 382.237 288.113 341 312.054C299.763 335.995 232.904 335.995 191.667 312.054L117 268.706Z" fill="url(#paint2_linear_149_10)"/>
</g>
<defs>
<linearGradient id="paint0_linear_149_10" x1="191.667" y1="251.366" x2="266.956" y2="381.05" gradientUnits="userSpaceOnUse">
<stop stop-color="#FF5555"/>
<stop offset="1" stop-color="#B72222" stop-opacity="0.33"/>
</linearGradient>
<linearGradient id="paint1_linear_149_10" x1="191.667" y1="199.348" x2="266.956" y2="329.032" gradientUnits="userSpaceOnUse">
<stop stop-color="#FF5555"/>
<stop offset="1" stop-color="#E30000" stop-opacity="0.72"/>
</linearGradient>
<linearGradient id="paint2_linear_149_10" x1="191.667" y1="225.357" x2="266.956" y2="355.041" gradientUnits="userSpaceOnUse">
<stop stop-color="#FF5555"/>
<stop offset="1" stop-color="#F52A2A" stop-opacity="0.35"/>
</linearGradient>
<clipPath id="clip0_149_10">
<rect width="255" height="201" fill="white" transform="translate(117 156)"/>
</clipPath>
</defs>
</svg>
